<!-- icon666.com - MILLIONS vector ICONS FREE --><svg version="1.1" id="Capa_1" xmlns="http://www.w3.org/2000/svg" xmlns:xlink="http://www.w3.org/1999/xlink" x="0px" y="0px" viewBox="0 0 201.387 201.387" style="enable-background:new 0 0 201.387 201.387;" xml:space="preserve"><circle style="fill: rgb(93, 165, 229);" cx="100.693" cy="100.693" r="97.28" fill="#288EEA"></circle><path d="M100.693,201.387C45.17,201.387,0,156.216,0,100.693S45.17,0,100.693,0s100.693,45.17,100.693,100.693 S156.216,201.387,100.693,201.387z M100.693,6.827c-51.758,0-93.867,42.109-93.867,93.867s42.109,93.867,93.867,93.867 s93.867-42.109,93.867-93.867S152.451,6.827,100.693,6.827z" fill="#000000"></path><path style="" d="M110.346,100.693L151.6,59.44c2.666-2.666,2.666-6.989,0-9.653c-2.666-2.666-6.987-2.666-9.653,0 L100.693,91.04L59.44,49.787c-2.666-2.666-6.989-2.666-9.653,0c-2.666,2.666-2.666,6.987,0,9.653l41.254,41.254l-41.254,41.254 c-2.666,2.666-2.666,6.989,0,9.653c1.333,1.333,3.081,2,4.826,2s3.494-0.667,4.826-2l41.254-41.254l41.254,41.254 c2.666,2.666,6.989,2.666,9.653,0c1.333-1.333,2-3.081,2-4.826c0-1.746-0.667-3.494-2-4.826L110.346,100.693z" fill="#FFFFFF"></path><path d="M146.773,157.013c-2.736,0-5.306-1.067-7.241-3l-38.839-38.839l-38.84,38.839c-1.934,1.935-4.506,3-7.24,3 c-2.734,0-5.306-1.065-7.24-3c-1.935-1.932-3-4.504-3-7.24c0-2.736,1.065-5.308,3-7.241l38.84-38.839l-38.84-38.84 c-3.994-3.992-3.994-10.489,0-14.479c1.934-1.934,4.506-3,7.24-3c2.734,0,5.306,1.067,7.241,3l38.839,38.839l38.84-38.839 c3.994-3.994,10.487-3.994,14.479,0c1.935,1.932,3,4.504,3,7.24s-1.065,5.308-3,7.241l-38.84,38.839l38.84,38.84 c1.935,1.934,3,4.506,3,7.24c0,2.734-1.065,5.306-3,7.24C152.079,155.947,149.509,157.013,146.773,157.013z M100.693,105.52 l43.667,43.667c1.29,1.29,3.538,1.289,4.825,0c0.647-0.645,1.002-1.504,1.002-2.415c0-0.911-0.355-1.768-1-2.413l-43.667-43.665 l43.667-43.667c0.645-0.645,1-1.502,1-2.413s-0.355-1.768-1-2.413c-1.33-1.331-3.497-1.331-4.826,0l-43.667,43.667L57.027,52.2 c-1.29-1.29-3.538-1.289-4.825,0c-1.331,1.331-1.331,3.497-0.002,4.828l43.667,43.665L52.2,144.36c-0.645,0.645-1,1.502-1,2.413 c0,0.911,0.355,1.768,1,2.413c1.29,1.292,3.536,1.29,4.826,0L100.693,105.52z" fill="#000000"></path></svg>